<svg width="801.9" height="604.3" xmlns="http://www.w3.org/2000/svg">
 <style type="text/css">.st0{fill:#020203;}</style>

 <g>
  <title>background</title>
  <rect fill="none" id="canvas_background" height="606.3" width="803.9" y="-1" x="-1"/>
 </g>
 <g>
  <title>Layer 1</title>
  <g id="svg_1">
   <polygon id="svg_2" points="131.7,237.9 131.9,222.6 68.7,222.6 68.7,314.2 86.2,314.2 86.2,278 127.7,278 127.7,262.7    86.2,262.7 86.2,237.9  " class="st0"/>
   <g id="svg_3">
    <path id="svg_4" d="m225.2,222.6l0,53.9c0,7.2 -2,12.9 -5.9,17c-4,4.1 -9.4,6.1 -16.3,6.1c-6.9,0 -12.4,-2 -16.5,-6.1c-4.1,-4.1 -6.1,-9.8 -6.1,-17l0,-53.9l-17.5,0l0,53.9c0,7.9 1.6,14.8 4.8,20.7c3.2,5.9 7.9,10.4 13.9,13.5c6.1,3.1 13.2,4.7 21.4,4.7c8.1,0 15.1,-1.6 21.1,-4.7c6,-3.1 10.6,-7.7 13.8,-13.5c3.2,-5.9 4.8,-12.8 4.8,-20.7l0,-53.9l-17.5,0z" class="st0"/>
    <polygon id="svg_5" points="300.5,298.9 300.5,275.9 345,275.9 345,260.6 300.5,260.6 300.5,237.9 350.1,237.9 350.1,222.6     283,222.6 283,314.2 351.7,314.2 351.7,298.9   " class="st0"/>
    <polygon id="svg_6" points="406.6,298.4 406.6,222.6 389.1,222.6 389.1,314.2 426.1,314.2 434.2,298.4   " class="st0"/>
    <path id="svg_7" d="m554.4,297.2c-7.2,-7.1 -16.8,-11.5 -28.7,-13.1l-7.8,-1.5l40.2,-36.8l0,-22.3l-85.8,0c-4.8,9.4 -9.9,19.3 -15.1,29.4l54.2,0l-34.1,32.8l0,21l24.8,0c8.3,0 14.6,1.6 18.9,4.6c4.3,3.1 6.5,7.6 6.5,13.5c0,5.9 -2.2,10.4 -6.5,13.6c-4.4,3.2 -10.6,4.7 -18.7,4.7c-7,0 -14,-1.3 -21,-4c-7,-2.7 -13.6,-6.6 -19.8,-11.8l-14.3,27.1c7.2,5.5 15.9,9.9 26.4,13.2c10.5,3.3 21.1,4.9 31.9,4.9c12.1,0 22.6,-2 31.5,-6.1c9,-4.1 15.9,-9.7 20.8,-17c4.9,-7.3 7.4,-15.6 7.4,-25c0.1,-11.1 -3.5,-20.2 -10.8,-27.2" class="st0"/>
    <path id="svg_8" d="m729.1,258.7c-6.6,-11.2 -15.8,-19.8 -27.6,-26c-11.9,-6.2 -25.5,-9.2 -40.9,-9.2l-63.6,0l0,147.4l62,0c15.7,0 29.6,-3.1 41.7,-9.3c12.1,-6.2 21.5,-14.9 28.2,-26.1c6.7,-11.2 10,-24 10,-38.5c0.1,-14.4 -3.2,-27.2 -9.8,-38.3m-34.3,60.9c-3.2,6.5 -7.7,11.4 -13.5,14.9c-5.7,3.5 -12.3,5.3 -19.8,5.3l-26.1,0l0,-84.9l24.2,0c7.7,0 14.6,1.8 20.6,5.4c6,3.6 10.8,8.6 14.2,15c3.4,6.4 5.1,13.9 5.1,22.3c0.1,8.1 -1.5,15.5 -4.7,22" class="st0"/>
    <path id="svg_9" d="m434.2,298.4l-8.1,15.8l-0.3,0c2.7,-5.3 5.4,-10.6 8.1,-15.8l0.3,0z" class="st0"/>
    <path id="svg_10" d="m472.5,223.5l-15.1,29.4l-0.2,0c5.2,-10.2 10.3,-20 15.1,-29.4l0.2,0z" class="st0"/>
    <path id="svg_11" d="m81.5,346c-1.3,-0.4 -2.4,-0.6 -3.4,-0.6c-0.9,0 -1.6,0.2 -2.1,0.5c-0.5,0.3 -0.8,0.8 -0.8,1.4c0,0.8 0.4,1.4 1.1,1.8c0.8,0.4 1.9,0.9 3.5,1.3c1.6,0.5 2.9,0.9 3.9,1.4c1,0.5 1.9,1.1 2.6,2.1c0.7,0.9 1.1,2.1 1.1,3.6c0,1.5 -0.4,2.7 -1.2,3.8c-0.8,1.1 -1.8,1.9 -3.2,2.4c-1.3,0.5 -2.9,0.8 -4.6,0.8c-1.9,0 -3.7,-0.3 -5.5,-1c-1.8,-0.7 -3.3,-1.5 -4.6,-2.7l2.1,-4.2c1.2,1 2.5,1.9 4,2.5c1.5,0.6 2.9,0.9 4.1,0.9c1.1,0 1.9,-0.2 2.5,-0.6c0.6,-0.4 0.9,-1 0.9,-1.7c0,-0.6 -0.2,-1.1 -0.6,-1.5c-0.4,-0.4 -0.9,-0.7 -1.5,-0.9c-0.6,-0.2 -1.5,-0.5 -2.6,-0.8c-1.6,-0.4 -2.8,-0.9 -3.8,-1.3c-1,-0.4 -1.8,-1.1 -2.6,-2c-0.7,-0.9 -1.1,-2.1 -1.1,-3.6c0,-1.4 0.4,-2.6 1.1,-3.6c0.7,-1 1.8,-1.8 3.1,-2.4c1.3,-0.6 2.9,-0.8 4.6,-0.8c1.6,0 3.1,0.2 4.6,0.7c1.5,0.5 2.9,1.1 4,1.8l-2,4.3c-1,-0.6 -2.2,-1.2 -3.6,-1.6" class="st0"/>
    <polygon id="svg_12" points="94.3,341.3 99.4,341.3 99.4,350.8 109.8,350.8 109.8,341.3 115,341.3 115,364.2 109.8,364.2     109.8,355.1 99.4,355.1 99.4,364.2 94.3,364.2   " class="st0"/>
    <path id="svg_13" d="m140.1,364.2l-1.8,-4.4l-10.6,0l-1.8,4.4l-5.3,0l9.9,-22.9l5.3,0l9.8,22.9l-5.5,0zm-10.7,-8.6l7.2,0l-3.6,-8.9l-3.6,8.9z" class="st0"/>
    <path id="svg_14" d="m167.7,343.4c1.6,1.4 2.4,3.3 2.4,5.9c0,2.7 -0.8,4.7 -2.4,6.2c-1.6,1.5 -3.8,2.2 -6.7,2.2l-4.5,0l0,6.5l-5.2,0l0,-22.9l9.7,0c2.9,0 5.2,0.7 6.7,2.1m-3.6,8.9c0.8,-0.7 1.2,-1.6 1.2,-2.9c0,-1.3 -0.4,-2.2 -1.2,-2.9c-0.8,-0.6 -1.9,-1 -3.3,-1l-4.3,0l0,7.7l4.3,0c1.4,0.1 2.5,-0.2 3.3,-0.9" class="st0"/>
    <rect id="svg_15" height="22.9" width="5.2" class="st0" y="341.3" x="176.7"/>
    <polygon id="svg_16" points="206,341.3 210.9,341.3 210.9,364.2 206.2,364.2 195.1,349.5 195.1,364.2 190.2,364.2 190.2,341.3     194.9,341.3 206,356.1   " class="st0"/>
    <path id="svg_17" d="m234.5,352.6l4.5,0l0,8.9c-1.2,0.9 -2.7,1.6 -4.4,2.2c-1.7,0.6 -3.3,0.8 -4.9,0.8c-2.3,0 -4.3,-0.5 -6.2,-1.6c-1.9,-1 -3.3,-2.4 -4.4,-4.2c-1.1,-1.8 -1.6,-3.8 -1.6,-6c0,-2.2 0.5,-4.2 1.6,-6c1.1,-1.8 2.6,-3.2 4.5,-4.2c1.9,-1 4,-1.5 6.3,-1.5c1.7,0 3.4,0.3 5,0.9c1.6,0.6 3,1.4 4.2,2.5l-2.9,3.7c-0.8,-0.8 -1.8,-1.4 -2.9,-1.9c-1.1,-0.5 -2.2,-0.7 -3.3,-0.7c-1.3,0 -2.5,0.3 -3.6,1c-1.1,0.6 -2,1.5 -2.6,2.6c-0.6,1.1 -0.9,2.3 -0.9,3.7c0,1.4 0.3,2.6 1,3.7c0.6,1.1 1.5,2 2.6,2.6c1.1,0.6 2.3,1 3.6,1c0.7,0 1.4,-0.1 2.2,-0.3c0.8,-0.2 1.5,-0.5 2.3,-0.9l0,-6.3l-0.1,0z" class="st0"/>
    <polygon id="svg_18" points="257.6,341.3 274.1,341.3 274,345.6 262.8,345.6 262.8,351.2 273.1,351.2 273.1,355.5 262.8,355.5     262.8,364.2 257.6,364.2   " class="st0"/>
    <path id="svg_19" d="m286.5,358.6c0.9,0.9 2.2,1.4 3.7,1.4c1.5,0 2.7,-0.5 3.6,-1.4c0.9,-0.9 1.3,-2.2 1.3,-3.9l0,-13.4l5.2,0l0,13.4c0,2 -0.4,3.7 -1.2,5.2c-0.8,1.5 -2,2.6 -3.5,3.4c-1.5,0.8 -3.3,1.2 -5.4,1.2c-2.1,0 -3.9,-0.4 -5.4,-1.2c-1.5,-0.8 -2.7,-1.9 -3.6,-3.4c-0.8,-1.5 -1.2,-3.2 -1.2,-5.2l0,-13.4l5.2,0l0,13.4c-0.1,1.7 0.4,2.9 1.3,3.9" class="st0"/>
    <polygon id="svg_20" points="305.9,341.3 325,341.3 325,345.7 318,345.7 318,364.2 312.9,364.2 312.9,345.7 305.9,345.7   " class="st0"/>
    <path id="svg_21" d="m337.2,358.6c0.9,0.9 2.2,1.4 3.7,1.4c1.5,0 2.7,-0.5 3.6,-1.4c0.9,-0.9 1.3,-2.2 1.3,-3.9l0,-13.4l5.2,0l0,13.4c0,2 -0.4,3.7 -1.2,5.2c-0.8,1.5 -2,2.6 -3.5,3.4c-1.5,0.8 -3.3,1.2 -5.4,1.2c-2.1,0 -3.9,-0.4 -5.4,-1.2c-1.5,-0.8 -2.7,-1.9 -3.6,-3.4c-0.8,-1.5 -1.2,-3.2 -1.2,-5.2l0,-13.4l5.2,0l0,13.4c-0.1,1.7 0.4,2.9 1.3,3.9" class="st0"/>
    <path id="svg_22" d="m372.9,364.2l-3.6,-6.5l-0.5,0l-4.8,0l0,6.5l-5.2,0l0,-22.9l9.9,0c3,0 5.3,0.7 6.9,2.1c1.6,1.4 2.4,3.3 2.4,5.9c0,1.8 -0.4,3.3 -1.1,4.5c-0.7,1.3 -1.8,2.2 -3.2,2.9l4.9,7.5l-5.7,0zm-8.8,-10.9l4.8,0c1.4,0 2.5,-0.3 3.3,-1c0.8,-0.7 1.2,-1.6 1.2,-2.9c0,-1.3 -0.4,-2.2 -1.2,-2.9c-0.8,-0.6 -1.9,-1 -3.3,-1l-4.8,0l0,7.8z" class="st0"/>
    <polygon id="svg_23" points="385.8,341.3 403.2,341.3 403.2,345.6 391,345.6 391,350.5 402,350.5 402,354.8 391,354.8 391,359.9     403.6,359.9 403.6,364.2 385.8,364.2   " class="st0"/>
    <path id="svg_24" d="m422.2,346c-1.3,-0.4 -2.4,-0.6 -3.4,-0.6c-0.9,0 -1.6,0.2 -2.1,0.5c-0.5,0.3 -0.8,0.8 -0.8,1.4c0,0.8 0.4,1.4 1.1,1.8c0.8,0.4 1.9,0.9 3.5,1.3c1.6,0.5 2.9,0.9 3.9,1.4c1,0.5 1.9,1.1 2.6,2.1c0.7,0.9 1.1,2.1 1.1,3.6c0,1.5 -0.4,2.7 -1.2,3.8c-0.8,1.1 -1.8,1.9 -3.2,2.4c-1.3,0.5 -2.9,0.8 -4.6,0.8c-1.8,0 -3.7,-0.3 -5.5,-1c-1.8,-0.7 -3.3,-1.5 -4.6,-2.7l2.1,-4.2c1.2,1 2.5,1.9 4,2.5c1.5,0.6 2.9,0.9 4.1,0.9c1.1,0 1.9,-0.2 2.5,-0.6c0.6,-0.4 0.9,-1 0.9,-1.7c0,-0.6 -0.2,-1.1 -0.6,-1.5c-0.4,-0.4 -0.9,-0.7 -1.5,-0.9c-0.6,-0.2 -1.5,-0.5 -2.6,-0.8c-1.6,-0.4 -2.8,-0.9 -3.8,-1.3c-1,-0.4 -1.8,-1.1 -2.6,-2c-0.7,-0.9 -1.1,-2.1 -1.1,-3.6c0,-1.4 0.4,-2.6 1.1,-3.6c0.7,-1 1.8,-1.8 3.1,-2.4c1.3,-0.6 2.9,-0.8 4.6,-0.8c1.6,0 3.1,0.2 4.6,0.7c1.5,0.5 2.9,1.1 4.1,1.8l-2,4.3c-1.1,-0.6 -2.4,-1.2 -3.7,-1.6" class="st0"/>
   </g>
  </g>
 </g>
</svg>